<?xml version="1.0" encoding="UTF-8" standalone="no"?>
<svg width="574px" height="104px" viewBox="0 0 574 104" version="1.1" xmlns="http://www.w3.org/2000/svg" xmlns:xlink="http://www.w3.org/1999/xlink" xmlns:sketch="http://www.bohemiancoding.com/sketch/ns">
    <!-- Generator: Sketch 3.0.2 (7799) - http://www.bohemiancoding.com/sketch -->
    <title>Footer</title>
    <description>Created with Sketch.</description>
    <defs></defs>
    <g id="Welcome" stroke="none" stroke-width="1" fill="none" fill-rule="evenodd" sketch:type="MSPage">
        <g id="Desktop-HD-2" sketch:type="MSArtboardGroup" transform="translate(-22.000000, -906.000000)" fill="#FFFFFF">
            <g id="Footer" sketch:type="MSLayerGroup" transform="translate(22.000000, 906.000000)">
                <g id="vamlogo" sketch:type="MSShapeGroup">
                    <path d="M84.1704367,3.77537564 C85.4241303,3.03778653 87.066445,2.68472567 90.3885933,2.50594761 C90.8583709,2.47136623 91.2247243,2.2223926 91.2247243,1.74691898 C91.2247243,1.24654775 90.8385576,0.970945926 90.4762856,0.970945926 L70.3242399,0.970945926 C69.8531495,0.970945926 69.3085447,1.11272396 69.3085447,1.74415264 C69.3085447,2.06574559 69.441274,2.42503079 70.0604083,2.50698498 C70.528559,2.56922959 71.5998894,2.63492975 72.7948699,2.71792178 C75.6770473,2.91848488 76.7844785,3.22002203 77.6119265,4.41129957 C78.3893092,5.53065061 77.9719176,7.51934062 77.0960922,9.88460548 C76.2232063,12.2415716 53.0277461,71.7100033 53.0277461,71.7100033 L52.9346809,71.7100033 C52.658071,70.8420461 34.2819506,13.0659564 33.4852751,10.569288 C32.6882526,8.0743482 32.3684084,6.31768961 32.7795386,5.35360219 C33.5298808,3.59383125 35.0233028,2.97554263 38.7508098,2.71895962 C39.2627363,2.68438059 39.500219,2.66363317 39.9669163,2.62559388 C40.4571988,2.5840967 40.7355152,2.15323275 40.6302953,1.62692673 C40.520469,1.07883533 40.2014945,0.964721677 39.6005981,0.964721677 C39.3257042,0.964721677 0.96316642,0.967480966 0.79027591,0.967480966 C0.433154792,0.967480966 0.0414216284,1.20608231 0.00331560564,1.69884582 C-0.0271211656,2.08925291 0.15580585,2.30883531 0.390795644,2.41534116 C0.618729173,2.51908061 1.30040584,2.60898844 2.57920095,2.69889628 C5.41954095,2.89945937 6.33713653,3.14117269 7.38726984,3.64327247 C9.5175501,4.66199617 10.9757726,7.39242501 11.7032932,9.57095839 C12.4307447,11.7491462 42.5779693,102.393773 42.6734044,102.670412 C42.8196129,103.094361 43.4327367,103.109578 43.6157586,102.670412 C43.7990291,102.231247 81.1674411,8.42982186 81.7034028,7.12270197 C82.1632878,6.00058415 82.9032569,4.51434017 84.1688122,3.7708724" id="Shape"></path>
                    <path d="M130.103823,94.482429 C129.280384,94.2265395 128.767832,94.7383233 128.164171,96.1664702 C127.463379,97.8225013 125.953013,98.2713489 124.500633,98.2713489 C121.784534,98.2713489 119.050107,95.1598499 117.018996,91.9933691 C116.907411,91.8204739 115.754585,90.0112496 114.022158,87.2925778 C118.431198,81.1643288 120.945015,73.9910756 122.097845,69.2546691 C122.495423,67.6218048 123.08183,65.1534924 123.960077,64.1288886 C125.177151,62.7093828 126.50747,62.2996131 128.428936,62.1076959 C129.26261,62.0247062 129.632524,61.9832114 129.945179,61.8933059 C130.379167,61.7653517 130.504927,61.3538612 130.465545,61.0537058 C130.405814,60.6020919 130.08522,60.4032566 129.74428,60.4032566 C129.403654,60.4032566 113.420709,60.4004434 112.95114,60.4004434 C112.392533,60.4004434 112.13911,60.7600747 112.13911,61.1916328 C112.13911,61.5965639 112.404428,61.8244456 112.787516,61.9171197 C113.052834,61.979362 113.527176,62.0277726 113.848924,62.0450739 C115.953547,62.1557268 117.491366,62.3926014 118.450906,63.0312914 C119.998547,64.0607362 119.847927,65.667665 119.554462,67.857955 C118.898587,72.7492803 116.414782,79.9609175 112.802421,85.3802798 C106.23053,75.0664789 94.3056204,56.3476914 94.3056204,56.3476914 C94.3056204,56.3476914 99.2423185,53.7832468 102.594311,51.8561068 C105.864765,49.975305 110.868819,46.1950311 110.868819,40.0131857 C110.868819,36.3473696 108.770387,33.4997169 105.898582,31.600934 C102.94583,29.6485524 98.523445,28.0869234 93.5034149,28.0869234 C87.2451442,28.0869234 80.5543055,30.3851047 76.9291491,36.1364328 C73.428475,41.6899642 74.3324826,49.8003327 78.4517214,56.5824889 C79.5647178,58.4148777 80.7858738,60.2666307 80.7858738,60.2666307 C79.3218411,60.7912076 77.5050117,61.5789367 75.9722749,62.2757219 C67.6458964,66.1417541 60.5795432,73.3606517 60.5795432,83.2681384 C60.5795432,94.2887536 68.7752155,103.151581 83.8826778,103.151581 C92.1205341,103.151581 98.9088849,100.537687 104.319993,96.6716547 C106.814517,100.054952 111.430609,102.593806 118.065431,102.593806 C124.360351,102.593806 129.344768,98.9290304 130.634872,95.9281867 C130.854946,95.4160559 130.721584,94.6750096 130.103927,94.4823985 L130.103823,94.482429 Z M86.4491274,32.622455 C87.7504671,30.7516823 89.6968259,29.9788209 92.305251,29.9788209 C95.84915,29.9788209 100.183154,33.2874251 100.183154,41.6381261 C100.183154,46.8876972 97.5303293,51.9311749 93.2647906,54.7387183 C93.2647906,54.7387183 89.5860408,49.055512 87.4774743,45.0878174 C85.6344694,41.6125353 83.9366884,36.2388196 86.4505081,32.622108 L86.4491274,32.622455 Z M73.56537,77.3619243 C73.56537,72.3841468 75.3107971,65.8969604 81.6797849,61.8096153 L81.6872863,61.8096153 L81.6797849,61.8096153 C81.6863486,61.8096153 81.6924436,61.8441943 81.6990074,61.8441943 C81.7093219,61.8441943 81.7235513,61.8822195 81.7424222,61.9099062 C95.6327441,83.3373387 96.4062541,84.570113 103.158987,94.9337077 C100.190604,96.9057981 96.8989886,98.0898148 93.6082035,98.0898148 C82.3579113,98.0898148 73.5650769,87.6501438 73.5650769,77.365047 L73.56537,77.3619243 Z" id="Shape"></path>
                    <path d="M180.307589,101.500269 C180.141643,101.46569 179.59186,101.41381 178.731318,101.344651 C174.518337,101.005775 169.914625,100.146466 167.177085,93.0489416 C166.302263,90.7735849 131.706997,1.09753886 131.482238,0.502764685 C131.222905,-0.182263047 130.572839,-0.163935643 130.344625,0.537345642 C130.150994,1.11413827 120.980908,28.2960128 120.980908,28.2960128 L144.843516,93.9666927 C145.26205,95.1859799 145.669548,96.3928187 145.669548,97.3202496 C145.669548,98.4942395 144.877852,99.8393944 143.542174,100.470479 C142.488409,100.968082 140.482057,101.232618 138.938115,101.361256 C138.451879,101.402751 138.036426,101.444246 137.597079,101.506488 C137.113782,101.575646 136.919419,101.991643 136.919419,102.357845 C136.919419,102.804618 137.254861,103.12794 137.745453,103.12794 L180.362812,103.12794 C180.720691,103.12794 181.099703,102.795972 181.099703,102.409022 C181.099703,101.749929 180.702781,101.564581 180.309111,101.499917" id="Shape"></path>
                </g>
                <path d="M207.849908,48 C206.597078,48 204.972771,49.3398298 204.014662,50.2315191 C201.908058,52.1173628 200,55.5846979 200,58.3677074 C200,62.3223628 203.335134,63.8151777 204.178637,63.8151777 C204.45671,63.8151777 204.693738,63.6704628 204.693738,63.2898809 C204.693738,62.9916138 204.506011,62.7433968 204.319463,62.488334 C203.547093,61.2975479 203.29893,60.1612372 203.29893,58.6284128 C203.29893,55.4327223 204.760414,52.5036011 205.972789,51.1634255 C206.196226,50.9209064 206.70148,50.3968957 206.85251,50.3968957 C207.002469,50.3968957 207.039647,50.519967 207.039647,50.900784 L206.898807,71.817134 C206.898807,75.0867723 205.963148,76.3858872 205.963148,77.1556532 C205.963148,77.4939021 206.108198,77.5817213 206.38564,77.5817213 C207.698673,77.5817213 209.007181,75.9679234 209.377835,75.379383 C210.527346,73.3772723 210.809286,71.8139809 210.809286,67.3054564 L210.809286,49.729567 C210.809286,49.2537809 210.676908,49.0483394 210.228607,48.7548713 C209.573557,48.3351511 208.822635,48 207.849908,48 L207.849908,48 Z M245.390147,48.0583617 C244.772622,48.0583617 244.508649,48.3837766 244.479566,49.3910553 L244.342594,53.5622574 L240.72535,53.4357979 C240.506048,53.4301277 240.406555,53.5000096 240.310573,53.6945532 C240.003338,54.2756255 239.841778,54.730667 239.841778,55.4883319 C239.841778,56.1054585 240.119298,56.1712053 240.366519,56.1712053 L244.130382,56.2801564 L244.118808,64.2490319 C244.118808,65.9391564 243.06126,68.1318553 241.1845,69.9552574 C241.1845,69.9552574 241.345816,69.4045968 241.336907,68.8268574 C241.336907,67.1917894 240.293145,65.7101074 238.902259,64.6614915 L235.506873,62.0856106 C236.218645,61.2552564 237.424494,59.6083223 237.424494,58.2179032 C237.424494,57.1398574 236.752217,56.686766 235.499156,56.686766 C233.730376,56.686766 231.679351,58.3204787 231.679351,60.7431947 C231.679351,61.6262819 232.068902,62.4212596 232.661307,63.0291894 C231.843586,64.5940713 230.686299,66.6528564 229.827314,68.1186755 C229.178244,69.2413362 228.080461,70.9610979 227.431254,70.9610979 C226.95233,70.9610979 226.730949,70.201234 226.730949,67.2821117 C226.730949,64.8567681 226.901794,62.2199947 226.987533,59.6887149 C226.987533,59.1085691 226.892963,58.5732457 226.146402,58.0486404 C225.4594,57.6046904 224.610795,56.9844383 223.736834,56.9844383 C221.793834,56.9844383 220.469994,58.7875798 219.562064,60.5505872 C218.622579,62.3777234 218.114458,63.9174213 217.397505,66.1517617 L217.476592,58.4630362 C217.50103,57.9148926 217.363756,57.7020245 216.928702,57.5155713 C216.36441,57.2741585 215.533798,56.9961106 214.796946,56.9961106 C214.181132,56.9961106 214.106282,57.263634 214.106282,57.9163447 L214.023342,67.1420298 L214.013742,70.7003926 C214.013742,73.9085713 214.412126,74.4435904 216.299846,74.4435904 C217.344927,74.4435904 217.679857,74.3198691 217.700441,73.4435862 C217.729021,72.863966 218.003843,71.4602426 218.375663,70.0525362 C219.462914,65.8970032 220.751454,62.6100638 222.972939,60.1050606 C223.204687,59.8620574 223.383637,59.9490053 223.3472,60.2937819 C223.3472,60.2937819 222.996088,65.9176649 222.996088,68.2179043 C222.996088,72.3090181 223.620322,74.4435904 225.639077,74.4435904 C227.620187,74.4435904 229.565779,71.8769202 230.627989,70.1439787 L234.034951,64.3969 C236.242685,66.2940702 237.783381,67.7650202 237.783381,69.554484 C237.783381,70.6666479 237.08744,71.7548723 236.027812,71.7548723 C234.703109,71.7548723 233.856806,70.3463085 232.962317,70.3463085 C232.219602,70.3463085 231.266554,71.7921298 231.266554,72.6128447 C231.266554,73.3879351 232.94343,74.4844436 235.952573,74.4844436 C240.394493,74.4844436 242.777308,71.4101372 244.207607,68.0058383 C244.481422,72.0463489 246.077727,74.4066234 248.567592,74.4066234 C250.200813,74.4066234 252.088371,72.3257245 252.946869,69.7840447 C252.946869,69.7840447 253.031724,70.4437947 253.683823,71.7957255 C254.581328,73.5610426 255.94587,74.3716064 257.640605,74.3716064 C259.748727,74.3716064 261.551789,73.0828638 262.652659,70.9202447 C262.819521,72.5589638 264.183821,74.3638202 266.377939,74.3638202 C267.755253,74.3638202 269.010961,73.2996043 269.83506,71.5466926 C269.83506,71.5466926 270.902756,74.4416404 273.99055,74.4416404 C275.725002,74.4416404 277.778748,72.8215362 278.26951,71.6439713 L278.323527,73.3560436 L273.741684,77.6167383 C272.411424,78.9190202 270.996436,80.7904117 270.996436,82.8618787 C270.996436,85.4966191 273.463323,87.0116862 275.634226,87.0116862 C277.890751,87.0116862 279.388091,85.5700415 280.208353,84.3618851 C281.240646,82.7987734 281.676472,79.8523926 281.676472,76.9727681 L281.574224,72.6420255 C284.66209,69.2190011 287.078693,64.4876649 288.154715,61.1400819 L290.498689,61.0778202 C290.952694,61.0471043 290.930287,61.2272511 290.867166,61.494166 C290.455163,63.2497191 290.095487,65.2378894 290.095487,67.2179 C290.095487,70.4890872 290.842768,71.9125319 291.916649,73.0758798 C292.850218,74.0505755 293.779032,74.3793787 294.756427,74.3793787 C296.667831,74.3793787 297.867683,72.787584 298.248275,71.7840532 C299.145778,73.5493702 300.467883,74.3716064 302.162616,74.3716064 C304.270736,74.3716064 306.073798,73.0828638 307.174669,70.9202447 C307.34153,72.5589638 308.705829,74.3638202 310.899949,74.3638202 C312.539182,74.3638202 313.489752,73.4097723 314.23746,71.6128404 C314.252765,72.1909532 314.274798,72.8071532 314.291477,73.3852245 C314.311099,73.6842245 314.548177,73.8733745 314.760272,73.9513745 C315.457076,74.2171968 316.068696,74.3501979 316.618089,74.3501979 C318.050988,74.3501979 318.362083,74.0533968 318.362083,73.1089606 C318.362083,71.5510766 318.407305,69.0893606 318.846311,67.1128489 C319.312417,65.1454372 320.015561,62.917666 320.98579,61.3677064 C321.073068,61.2075574 321.287342,61.2495309 321.296391,61.4435904 C321.435692,64.7599734 321.655801,70.3737883 322.519502,71.8268564 C322.945884,72.51995 323.605027,73.0253043 324.59146,73.0253043 C325.054212,73.0253043 325.620997,72.8263074 325.766341,72.7023372 C325.913374,72.5867479 325.987515,72.4584489 325.978553,72.2198436 C325.978553,67.9804606 327.289332,63.8762777 328.602261,61.1167372 C328.638186,61.0349617 328.740496,61.0285032 328.737304,61.1361957 L328.663994,64.1906702 C328.663994,69.2076606 329.022642,72.3772404 331.507632,73.9007851 C331.888024,74.1137085 332.422674,74.3190809 333.106936,74.3190809 C334.378329,74.3190809 335.531268,73.6029191 336.10105,72.4513681 C336.565305,71.5564564 337.000055,69.8339426 337.000055,68.8579745 C337.000055,68.4801862 337.004457,67.8657564 336.39043,67.8657564 C336.053741,67.8657564 335.851557,68.1158404 335.771157,68.4941681 C335.575463,69.3134723 335.414813,70.0163989 335.111372,70.8268521 C334.821046,71.6003521 334.387876,72.0505947 333.874756,72.0505947 C333.27147,72.0505947 332.965591,71.5719043 332.790547,71.2762787 C332.020641,70.0925596 331.959064,67.3730426 331.959064,65.1031181 L332.144266,59.2607106 C332.144266,58.7773872 331.944208,58.1989287 331.204748,57.7723766 C330.708274,57.4841915 329.452531,56.9416351 328.683287,56.9416351 C327.969927,56.9416351 327.624687,57.3493096 327.367574,57.9474755 C326.884728,59.0217181 325.271153,63.2356543 324.838398,66.6614862 C324.822905,66.7518223 324.711488,66.7708521 324.703353,66.6556777 C324.478515,64.2329894 324.363053,61.3139362 324.365743,59.3443947 C324.365743,58.749133 324.221323,57.8978819 322.969006,57.3463362 C322.360571,57.0917436 321.856907,56.9358266 321.242374,56.9358266 C320.479424,56.9358266 320.315575,57.3123149 320.042413,57.8113213 C319.178275,59.4212606 318.580731,61.5210372 317.684935,64.1692894 L317.698443,58.1089798 C317.698443,57.8255936 317.526232,57.4540011 317.03287,57.3541223 C315.809565,57.0707362 315.242654,56.9416628 314.760276,56.9416628 C314.409255,56.9416628 314.216242,57.2240255 314.216242,57.5292213 L314.150649,67.8618979 C313.914077,69.1270745 312.955041,72.1459511 311.594464,72.1459511 C310.477846,72.1459511 309.956576,71.0049936 309.956576,66.2354457 L310.159141,58.4844723 C310.159141,57.9948287 309.840331,57.7889862 309.375886,57.5817468 C308.711807,57.3156894 308.18335,57.2101543 307.508424,57.2101543 C306.661246,57.2101543 306.370404,57.6191149 306.541897,58.6011957 C305.610512,57.330667 304.679551,56.6284319 303.034616,56.6284319 C299.732419,56.6284319 297.243166,60.6343128 297.243166,66.455284 C297.210646,68.0876415 297.601998,69.7101521 297.601998,69.7101521 C297.303184,71.0648904 296.600734,72.1692957 295.630358,72.1692957 C294.406125,72.1692957 293.625922,70.4238245 293.625922,67.3988628 C293.625922,64.3649532 294.771865,60.9430766 294.771865,60.0155957 C294.771865,58.9372457 294.071267,58.2548979 292.831093,58.2548979 C292.209634,58.2548979 289.905283,58.7821032 288.723833,58.9552798 C288.723833,58.9552798 288.856911,58.3879404 288.847302,57.941667 C288.847302,56.8781564 288.352467,56.2120862 287.124529,56.2120862 C285.62357,56.2120862 284.522042,57.2927872 284.522042,59.1362149 C284.522042,59.9636372 284.994449,60.7286596 285.619755,61.1401096 C284.808003,64.5543245 283.488159,67.0933351 281.543361,69.9300043 L281.707343,58.4436191 C281.707343,58.0701596 281.608825,57.8383032 280.883575,57.5545021 C280.500069,57.3874383 279.875221,57.1945819 279.087493,57.1945819 C277.945884,57.1945819 278.021153,58.0168319 278.082382,58.6323266 C277.560035,57.6982628 276.416304,56.5895287 274.65227,56.5895287 C269.844599,56.5895287 268.368433,63.9828223 269.092323,69.2334947 C269.092323,69.8736617 268.472656,72.1459511 267.072455,72.1459511 C265.955841,72.1459511 265.434565,71.0049936 265.434565,66.2354457 L265.63906,58.4844723 C265.63906,57.9948287 265.318324,57.7889862 264.853877,57.5817468 C264.189795,57.3156894 263.663266,57.2101543 262.988343,57.2101543 C262.141164,57.2101543 261.850324,57.6191149 262.021816,58.6011957 C261.090431,57.330667 260.157542,56.6284319 258.512607,56.6284319 C255.210408,56.6284319 252.688361,60.2919011 252.688361,66.1128723 C252.688361,68.3349872 250.791167,71.7257191 249.460814,71.7257191 C248.721753,71.7257191 247.934819,70.3575936 247.934819,66.8619074 C247.938604,64.4791734 248.260854,56.3677404 248.260854,56.3677404 L252.904432,56.2918702 C253.126141,56.2897957 253.254396,56.0454372 253.336571,55.894983 C253.549861,55.4587223 253.652959,55.1681447 253.652959,54.6459596 C253.652959,54.1747787 253.559486,54.0027777 252.960378,53.9689223 L248.332234,53.6887585 L248.529012,49.3405074 C248.542698,49.0658202 248.37865,48.8869734 248.081438,48.7529628 C247.184738,48.4000128 246.086101,48.0584032 245.390208,48.0584032 L245.390147,48.0583617 Z M259.444348,59.4513681 C260.682448,59.4513681 261.9388,60.5902511 261.9388,64.6303606 C261.9388,69.717233 260.101099,72.0836617 258.688104,72.0836617 C257.363317,72.0836617 256.357634,70.198067 256.357634,66.4941734 C256.357634,62.7502149 257.339669,59.4513681 259.444348,59.4513681 L259.444348,59.4513681 Z M304.031951,59.4513681 C305.270051,59.4513681 306.526403,60.5902511 306.526403,64.6303606 C306.526403,69.717233 304.688701,72.0836617 303.275706,72.0836617 C301.950918,72.0836617 300.945236,70.198067 300.945236,66.4941734 C300.945236,62.7502149 301.927272,59.4513681 304.031951,59.4513681 L304.031951,59.4513681 Z M275.751852,59.4747128 C277.367662,59.4747128 278.082322,61.15405 278.082322,64.4105085 C278.082322,69.3196266 276.635406,72.1147926 274.877925,72.1147926 C273.75598,72.1147926 272.465994,70.2570787 272.533951,66.6031245 C272.533951,64.2666096 273.289372,59.4747128 275.751852,59.4747128 L275.751852,59.4747128 Z M278.487452,75.8968936 L278.487452,77.8307404 C278.487452,84.2472223 276.791978,85.3424309 275.429675,85.3424309 C274.913683,85.3424309 273.649026,84.9494574 273.649026,83.3618809 C273.649026,81.1428915 275.949536,78.6184989 276.664362,77.8385266 L278.487452,75.8968936 L278.487452,75.8968936 Z" id="Insta-LogoType" sketch:type="MSShapeGroup"></path>
                <path d="M402.43176,46.7847399 L414.445208,46.7847399 L414.445208,65.5121237 C414.445208,70.0738635 410.803596,73.7717563 406.311283,73.7717563 L381.453052,73.7717563 C376.96084,73.7717563 373.319127,70.0737616 373.319127,65.5121237 L373.319127,46.7847399 L385.278793,46.7847399 C384.05462,48.5312841 383.332258,50.6655303 383.332258,52.9725866 C383.332258,58.8741146 388.043617,63.6582864 393.855427,63.6582864 C399.667136,63.6582864 404.378495,58.8741146 404.378495,52.9725866 C404.378395,50.6654284 403.655932,48.5311822 402.43176,46.7847399 L402.43176,46.7847399 Z M414.445208,40.051563 L414.445208,45.4762328 L401.35228,45.4762328 C399.443574,43.5081737 396.79023,42.286785 393.855326,42.286785 C390.920222,42.286785 388.266978,43.5080719 386.358372,45.4762328 L373.319027,45.4762328 L373.319027,40.051563 C373.319027,37.2676485 374.676855,34.8072435 376.755239,33.310948 L376.755239,42.205067 L378.422924,42.205067 L378.422924,32.3866785 C378.801213,32.2322091 379.19345,32.1062696 379.597327,32.0105923 L379.597327,42.2051689 L381.265112,42.2051689 L381.265112,31.7967193 C381.327825,31.7951909 381.390038,31.7919304 381.453052,31.7919304 L382.416135,31.7919304 L382.416135,42.2049651 L384.083819,42.2049651 L384.083819,31.7919304 L406.311283,31.7919304 C410.803596,31.7919304 414.445208,35.4898232 414.445208,40.051563 L414.445208,40.051563 Z M410.727436,36.5703962 C410.727436,35.8387041 410.143245,35.2455862 409.422689,35.2455862 L405.025601,35.2455862 C404.304844,35.2455862 403.720854,35.8387041 403.720854,36.5703962 L403.720854,41.1336644 C403.720854,41.8653564 404.304844,42.4584743 405.025601,42.4584743 L409.422689,42.4584743 C410.143245,42.4584743 410.727436,41.8653564 410.727436,41.1336644 L410.727436,36.5703962 L410.727436,36.5703962 Z M385.748193,52.9725866 C385.748193,50.508004 386.821652,48.2947909 388.51693,46.7847399 C389.111557,46.2552031 389.782544,45.8127847 390.511228,45.4762328 C391.531606,45.0049787 392.663263,44.7401594 393.855326,44.7401594 C395.04749,44.7401594 396.178947,45.0049787 397.199325,45.4762328 C397.928109,45.8127847 398.599096,46.2552031 399.193723,46.7847399 C400.889001,48.2947909 401.96236,50.5081059 401.96236,52.9725866 C401.96236,57.5119101 398.325664,61.204912 393.855326,61.204912 C389.385089,61.204912 385.748193,57.5119101 385.748193,52.9725866 L385.748193,52.9725866 Z M387.890294,52.9725866 C387.890294,56.3329087 390.572938,59.0568084 393.882118,59.0568084 C397.191297,59.0568084 399.873841,56.3329087 399.873841,52.9725866 C399.873841,49.6121627 397.191398,46.888263 393.882118,46.888263 C390.572938,46.888263 387.890294,49.6121627 387.890294,52.9725866 L387.890294,52.9725866 Z" id="instagram-icon" sketch:type="MSShapeGroup"></path>
                <path d="M184.62,28.7 L180,28.7 L180,32.18 L184.36,32.18 L184.36,34.32 L180,34.32 L180,40 L177.4,40 L177.4,26.5 L184.62,26.5 L184.62,28.7 Z M195.3,34.84 C195.3,36.4000078 194.826671,37.6833283 193.88,38.69 C192.933329,39.6966717 191.713341,40.2 190.22,40.2 C187.126651,40.2 185.58,38.53335 185.58,35.2 C185.58,33.6399922 186.049995,32.360005 186.99,31.36 C187.930005,30.359995 189.153326,29.86 190.66,29.86 C192.113341,29.86 193.239996,30.259996 194.04,31.06 C194.880004,31.9133376 195.3,33.173325 195.3,34.84 Z M192.66,34.98 C192.66,33.0066568 191.933341,32.02 190.48,32.02 C189.85333,32.02 189.333335,32.253331 188.92,32.72 C188.453331,33.2400026 188.22,33.9799952 188.22,34.94 C188.22,36.9933436 188.959993,38.02 190.44,38.02 C191.093337,38.02 191.626665,37.7566693 192.04,37.23 C192.453335,36.7033307 192.66,35.9533382 192.66,34.98 Z M199.92,40 L197.36,40 L197.36,25.4 L199.92,25.4 L199.92,40 Z M205.24,40 L202.68,40 L202.68,25.4 L205.24,25.4 L205.24,40 Z M217,34.84 C217,36.4000078 216.526671,37.6833283 215.58,38.69 C214.633329,39.6966717 213.413341,40.2 211.92,40.2 C208.826651,40.2 207.28,38.53335 207.28,35.2 C207.28,33.6399922 207.749995,32.360005 208.69,31.36 C209.630005,30.359995 210.853326,29.86 212.36,29.86 C213.813341,29.86 214.939996,30.259996 215.74,31.06 C216.580004,31.9133376 217,33.173325 217,34.84 Z M214.36,34.98 C214.36,33.0066568 213.633341,32.02 212.18,32.02 C211.55333,32.02 211.033335,32.253331 210.62,32.72 C210.153331,33.2400026 209.92,33.9799952 209.92,34.94 C209.92,36.9933436 210.659993,38.02 212.14,38.02 C212.793337,38.02 213.326665,37.7566693 213.74,37.23 C214.153335,36.7033307 214.36,35.9533382 214.36,34.98 Z M233.32,30.06 L230.2,40 L227.42,40 L225.98,35.58 C225.819999,35.0733308 225.633334,34.3333382 225.42,33.36 L225.4,33.36 C225.266666,33.9733364 225.040002,34.8066614 224.72,35.86 L223.46,40 L220.82,40 L217.78,30.06 L220.58,30.06 L221.64,33.82 C221.933335,34.8733386 222.193332,35.8733286 222.42,36.82 L222.44,36.82 C222.600001,35.9266622 222.839998,34.9666718 223.16,33.94 L224.36,30.06 L226.82,30.06 L228.04,33.82 C228.373335,34.8600052 228.639999,35.8599952 228.84,36.82 L228.88,36.82 C229.066668,35.8733286 229.299999,34.9133382 229.58,33.94 L230.7,30.06 L233.32,30.06 Z M247.9,40 L245.5,40 C245.5,39.2399962 245.54,38.6533354 245.62,38.24 L245.6,38.22 C244.919997,39.55334 243.793341,40.22 242.22,40.22 C240.246657,40.22 239.26,39.1600106 239.26,37.04 L239.26,30.06 L241.8,30.06 L241.8,36.42 C241.8,37.5266722 242.213329,38.08 243.04,38.08 C243.680003,38.08 244.223331,37.7633365 244.67,37.13 C245.116669,36.4966635 245.34,35.7400044 245.34,34.86 L245.34,30.06 L247.9,30.06 L247.9,40 Z M256.82,36.92 C256.82,37.9066716 256.416671,38.699997 255.61,39.3 C254.803329,39.900003 253.726673,40.2 252.38,40.2 C251.766664,40.2 251.073337,40.1400006 250.3,40.02 L250.36,37.92 C251.133337,38.120001 251.846663,38.22 252.5,38.22 C253.580005,38.22 254.12,37.8666702 254.12,37.16 C254.12,36.7066644 253.773337,36.3400014 253.08,36.06 C251.959994,35.6066644 251.313334,35.3200006 251.14,35.2 C250.446663,34.7199976 250.1,33.9933382 250.1,33.02 C250.1,32.0999954 250.45333,31.3533362 251.16,30.78 C251.920004,30.1533302 252.973327,29.84 254.32,29.84 C254.813336,29.84 255.419996,29.8999994 256.14,30.02 L256.06,32.04 C255.459997,31.8666658 254.84667,31.78 254.22,31.78 C253.233328,31.78 252.74,32.1199966 252.74,32.8 C252.74,33.2266688 253.09333,33.5866652 253.8,33.88 C254.906672,34.3333356 255.559999,34.6333326 255.76,34.78 C256.46667,35.2866692 256.82,35.9999954 256.82,36.92 Z M272.36,34.84 C272.36,36.4000078 271.886671,37.6833283 270.94,38.69 C269.993329,39.6966717 268.773341,40.2 267.28,40.2 C264.186651,40.2 262.64,38.53335 262.64,35.2 C262.64,33.6399922 263.109995,32.360005 264.05,31.36 C264.990005,30.359995 266.213326,29.86 267.72,29.86 C269.173341,29.86 270.299996,30.259996 271.1,31.06 C271.940004,31.9133376 272.36,33.173325 272.36,34.84 Z M269.72,34.98 C269.72,33.0066568 268.993341,32.02 267.54,32.02 C266.91333,32.02 266.393335,32.253331 265.98,32.72 C265.513331,33.2400026 265.28,33.9799952 265.28,34.94 C265.28,36.9933436 266.019993,38.02 267.5,38.02 C268.153337,38.02 268.686665,37.7566693 269.1,37.23 C269.513335,36.7033307 269.72,35.9533382 269.72,34.98 Z M283.06,40 L280.52,40 L280.52,33.64 C280.52,32.5333278 280.113337,31.98 279.3,31.98 C278.659997,31.98 278.113336,32.2966635 277.66,32.93 C277.206664,33.5633365 276.98,34.3199956 276.98,35.2 L276.98,40 L274.42,40 L274.42,30.06 L276.84,30.06 C276.84,30.7533368 276.793334,31.3399976 276.7,31.82 L276.72,31.84 C277.400003,30.50666 278.526659,29.84 280.1,29.84 C282.073343,29.84 283.06,30.8999894 283.06,33.02 L283.06,40 Z" id="Follow-us-on-" sketch:type="MSShapeGroup"></path>
                <path d="M446.143204,47.09 L440.563204,62 L436.663204,62 L431.143204,47.09 L435.343204,47.09 L437.713204,53.81 C438.093206,54.8900054 438.423203,55.9899944 438.703204,57.11 L438.763204,57.11 C439.063206,55.8699938 439.363203,54.8100044 439.663204,53.93 L442.063204,47.09 L446.143204,47.09 Z M459.253204,62 L455.623204,62 C455.623204,60.9799949 455.673204,60.1400033 455.773204,59.48 L455.743204,59.45 C455.383202,60.3100043 454.773208,60.9999974 453.913204,61.52 C453.0532,62.0400026 452.07321,62.3 450.973204,62.3 C449.633197,62.3 448.588208,61.9500035 447.838204,61.25 C447.0882,60.5499965 446.713204,59.5900061 446.713204,58.37 C446.713204,56.6299913 447.513196,55.2700049 449.113204,54.29 C450.653212,53.3699954 452.723191,52.91 455.323204,52.91 L455.323204,52.1 C455.323204,50.5199921 454.353214,49.73 452.413204,49.73 C450.833196,49.73 449.363211,50.1199961 448.003204,50.9 L447.673204,47.69 C449.393213,47.0699969 451.173195,46.76 453.013204,46.76 C455.293216,46.76 456.923199,47.2199954 457.903204,48.14 C458.743208,48.940004 459.163204,50.2099913 459.163204,51.95 L459.163204,58.16 C459.163204,59.4800066 459.193204,60.7599938 459.253204,62 Z M455.323204,55.76 L455.323204,55.4 C452.023188,55.4 450.373204,56.1899921 450.373204,57.77 C450.373204,58.8300053 450.963198,59.36 452.143204,59.36 C453.063209,59.36 453.833201,58.9800038 454.453204,58.22 C455.033207,57.5199965 455.323204,56.7000047 455.323204,55.76 Z M485.203204,62 L481.363204,62 L481.363204,52.55 C481.363204,50.8299914 480.77321,49.97 479.593204,49.97 C478.7132,49.97 477.933208,50.4199955 477.253204,51.32 C476.533201,52.2800048 476.173204,53.459993 476.173204,54.86 L476.173204,62 L472.393204,62 L472.393204,52.55 C472.393204,50.8299914 471.80321,49.97 470.623204,49.97 C469.7232,49.97 468.928208,50.4449953 468.238204,51.395 C467.548201,52.3450048 467.203204,53.4999932 467.203204,54.86 L467.203204,62 L463.363204,62 L463.363204,47.09 L466.993204,47.09 C466.993204,48.0500048 466.923205,48.9399959 466.783204,49.76 L466.843204,49.76 C467.823209,47.75999 469.463193,46.76 471.763204,46.76 C474.003215,46.76 475.373202,47.75999 475.873204,49.76 C476.253206,48.9399959 476.8332,48.2600027 477.613204,47.72 C478.533209,47.0799968 479.573198,46.76 480.733204,46.76 C483.713219,46.76 485.203204,48.4199834 485.203204,51.74 L485.203204,62 Z M502.303204,62 L498.703204,62 C498.703204,60.8599943 498.763204,59.9800031 498.883204,59.36 L498.853204,59.33 C497.833199,61.33001 496.143216,62.33 493.783204,62.33 C490.823189,62.33 489.343204,60.7400159 489.343204,57.56 L489.343204,47.09 L493.153204,47.09 L493.153204,56.63 C493.153204,58.2900083 493.773198,59.12 495.013204,59.12 C495.973209,59.12 496.788201,58.6450048 497.458204,57.695 C498.128207,56.7449953 498.463204,55.6100066 498.463204,54.29 L498.463204,47.09 L502.303204,47.09 L502.303204,62 Z M515.683204,57.38 C515.683204,58.8600074 515.07821,60.0499955 513.868204,60.95 C512.658198,61.8500045 511.043214,62.3 509.023204,62.3 C508.1032,62.3 507.06321,62.2100009 505.903204,62.03 L505.993204,58.88 C507.15321,59.1800015 508.223199,59.33 509.203204,59.33 C510.823212,59.33 511.633204,58.8000053 511.633204,57.74 C511.633204,57.0599966 511.113209,56.5100021 510.073204,56.09 C508.393196,55.4099966 507.423205,54.9800009 507.163204,54.8 C506.123199,54.0799964 505.603204,52.9900073 505.603204,51.53 C505.603204,50.1499931 506.133199,49.0300043 507.193204,48.17 C508.33321,47.2299953 509.913194,46.76 511.933204,46.76 C512.673208,46.76 513.583199,46.8499991 514.663204,47.03 L514.543204,50.06 C513.6432,49.7999987 512.723209,49.67 511.783204,49.67 C510.303197,49.67 509.563204,50.1799949 509.563204,51.2 C509.563204,51.8400032 510.093199,52.3799978 511.153204,52.82 C512.813212,53.5000034 513.793203,53.9499989 514.093204,54.17 C515.153209,54.9300038 515.683204,55.9999931 515.683204,57.38 Z M531.163204,53.42 C531.163204,54.020003 531.123205,54.5999972 531.043204,55.16 L521.803204,55.16 C521.783204,57.9200138 523.15319,59.3 525.913204,59.3 C527.473212,59.3 528.923197,58.9900031 530.263204,58.37 L530.623204,61.34 C529.003196,61.9800032 527.223214,62.3 525.283204,62.3 C520.36318,62.3 517.903204,59.7600254 517.903204,54.68 C517.903204,52.3399883 518.523198,50.4350074 519.763204,48.965 C521.00321,47.4949927 522.713193,46.76 524.893204,46.76 C526.973215,46.76 528.563199,47.4099935 529.663204,48.71 C530.663209,49.8900059 531.163204,51.4599902 531.163204,53.42 Z M527.353204,52.55 C527.373204,51.6299954 527.153206,50.9050027 526.693204,50.375 C526.233202,49.8449974 525.593208,49.58 524.773204,49.58 C523.9732,49.58 523.313207,49.8499973 522.793204,50.39 C522.273202,50.9300027 521.963205,51.6499955 521.863204,52.55 L527.353204,52.55 Z M547.333204,62 L543.733204,62 C543.733204,60.8599943 543.793204,59.9800031 543.913204,59.36 L543.883204,59.33 C542.863199,61.33001 541.173216,62.33 538.813204,62.33 C535.853189,62.33 534.373204,60.7400159 534.373204,57.56 L534.373204,47.09 L538.183204,47.09 L538.183204,56.63 C538.183204,58.2900083 538.803198,59.12 540.043204,59.12 C541.003209,59.12 541.818201,58.6450048 542.488204,57.695 C543.158207,56.7449953 543.493204,55.6100066 543.493204,54.29 L543.493204,47.09 L547.333204,47.09 L547.333204,62 Z M573.313204,62 L569.473204,62 L569.473204,52.55 C569.473204,50.8299914 568.88321,49.97 567.703204,49.97 C566.8232,49.97 566.043208,50.4199955 565.363204,51.32 C564.643201,52.2800048 564.283204,53.459993 564.283204,54.86 L564.283204,62 L560.503204,62 L560.503204,52.55 C560.503204,50.8299914 559.91321,49.97 558.733204,49.97 C557.8332,49.97 557.038208,50.4449953 556.348204,51.395 C555.658201,52.3450048 555.313204,53.4999932 555.313204,54.86 L555.313204,62 L551.473204,62 L551.473204,47.09 L555.103204,47.09 C555.103204,48.0500048 555.033205,48.9399959 554.893204,49.76 L554.953204,49.76 C555.933209,47.75999 557.573193,46.76 559.873204,46.76 C562.113215,46.76 563.483202,47.75999 563.983204,49.76 C564.363206,48.9399959 564.9432,48.2600027 565.723204,47.72 C566.643209,47.0799968 567.683198,46.76 568.843204,46.76 C571.823219,46.76 573.313204,48.4199834 573.313204,51.74 L573.313204,62 Z" id="vamuseum" sketch:type="MSShapeGroup"></path>
            </g>
        </g>
    </g>
</svg>