<?xml version="1.0" encoding="UTF-8" standalone="no"?>
<svg width="137px" height="39px" viewBox="0 0 137 39" version="1.1" xmlns="http://www.w3.org/2000/svg" xmlns:xlink="http://www.w3.org/1999/xlink" xmlns:sketch="http://www.bohemiancoding.com/sketch/ns">
    <!-- Generator: Sketch 3.0.2 (7799) - http://www.bohemiancoding.com/sketch -->
    <title>Insta LogoType</title>
    <description>Created with Sketch.</description>
    <defs></defs>
    <g id="Page-1" stroke="none" stroke-width="1" fill="none" fill-rule="evenodd" sketch:type="MSPage">
        <path d="M7.84990801,0 C6.59707798,0 4.97277087,1.33982979 4.01466226,2.23151915 C1.90805756,4.11736277 0,7.58469787 0,10.3677074 C0,14.3223628 3.33513403,15.8151777 4.17863714,15.8151777 C4.45671011,15.8151777 4.69373794,15.6704628 4.69373794,15.2898809 C4.69373794,14.9916138 4.50601091,14.7433968 4.31946326,14.488334 C3.54709319,13.2975479 3.29892983,12.1612372 3.29892983,10.6284128 C3.29892983,7.43272234 4.76041401,4.50360106 5.97278859,3.16342553 C6.19622613,2.92090638 6.70148048,2.39689574 6.85250961,2.39689574 C7.00246907,2.39689574 7.03964695,2.51996702 7.03964695,2.90078404 L6.89880711,23.817134 C6.89880711,27.0867723 5.96314785,28.3858872 5.96314785,29.1556532 C5.96314785,29.4939021 6.1081978,29.5817213 6.38563994,29.5817213 C7.69867317,29.5817213 9.00718088,27.9679234 9.37783514,27.379383 C10.527346,25.3772723 10.8092863,23.8139809 10.8092863,19.3054564 L10.8092863,1.72956702 C10.8092863,1.25378085 10.6769078,1.04833936 10.2286065,0.754871277 C9.57355726,0.335151064 8.82263544,0 7.84990801,0 L7.84990801,0 Z M45.3901475,0.0583617021 C44.7726217,0.0583617021 44.5086491,0.383776596 44.4795665,1.39105532 L44.3425939,5.56225745 L40.7253496,5.43579787 C40.5060481,5.43012766 40.4065551,5.50000957 40.3105728,5.69455319 C40.0033376,6.27562553 39.8417777,6.73066702 39.8417777,7.48833191 C39.8417777,8.10545851 40.119298,8.17120532 40.3665193,8.17120532 L44.1303824,8.28015638 L44.118808,16.2490319 C44.118808,17.9391564 43.0612599,20.1318553 41.1844998,21.9552574 C41.1844998,21.9552574 41.3458156,21.4045968 41.3369071,20.8268574 C41.3369071,19.1917894 40.2931454,17.7101074 38.9022594,16.6614915 L35.5068728,14.0856106 C36.2186447,13.2552564 37.4244943,11.6083223 37.4244943,10.2179032 C37.4244943,9.13985745 36.7522165,8.68676596 35.4991561,8.68676596 C33.7303764,8.68676596 31.6793507,10.3204787 31.6793507,12.7431947 C31.6793507,13.6262819 32.0689024,14.4212596 32.6613074,15.0291894 C31.8435861,16.5940713 30.6862995,18.6528564 29.8273136,20.1186755 C29.1782435,21.2413362 28.0804608,22.9610979 27.4312536,22.9610979 C26.9523295,22.9610979 26.730949,22.201234 26.730949,19.2821117 C26.730949,16.8567681 26.9017945,14.2199947 26.9875326,11.6887149 C26.9875326,11.1085691 26.8929629,10.5732457 26.146402,10.0486404 C25.4593998,9.60469043 24.6107952,8.9844383 23.7368339,8.9844383 C21.7938338,8.9844383 20.4699942,10.7875798 19.5620641,12.5505872 C18.6225787,14.3777234 18.1144582,15.9174213 17.3975052,18.1517617 L17.4765922,10.4630362 C17.50103,9.91489255 17.3637558,9.70202447 16.9287019,9.51557128 C16.36441,9.27415851 15.5337978,8.99611064 14.7969462,8.99611064 C14.1811319,8.99611064 14.1062825,9.26363404 14.1062825,9.91634468 L14.0233419,19.1420298 L14.0137423,22.7003926 C14.0137423,25.9085713 14.4121257,26.4435904 16.2998458,26.4435904 C17.3449268,26.4435904 17.6798569,26.3198691 17.7004411,25.4435862 C17.7290205,24.863966 18.0038433,23.4602426 18.3756633,22.0525362 C19.4629139,17.8970032 20.7514545,14.6100638 22.9729389,12.1050606 C23.204687,11.8620574 23.3836372,11.9490053 23.3471999,12.2937819 C23.3471999,12.2937819 22.9960877,17.9176649 22.9960877,20.2179043 C22.9960877,24.3090181 23.6203222,26.4435904 25.6390769,26.4435904 C27.6201874,26.4435904 29.5657794,23.8769202 30.6279888,22.1439787 L34.0349511,16.3969 C36.2426849,18.2940702 37.7833809,19.7650202 37.7833809,21.554484 C37.7833809,22.6666479 37.0874401,23.7548723 36.0278116,23.7548723 C34.7031093,23.7548723 33.8568059,22.3463085 32.9623166,22.3463085 C32.2196024,22.3463085 31.2665542,23.7921298 31.2665542,24.6128447 C31.2665542,25.3879351 32.94343,26.4844436 35.9525726,26.4844436 C40.3944925,26.4844436 42.7773079,23.4101372 44.2076071,20.0058383 C44.4814219,24.0463489 46.077727,26.4066234 48.5675916,26.4066234 C50.2008126,26.4066234 52.0883709,24.3257245 52.9468686,21.7840447 C52.9468686,21.7840447 53.0317236,22.4437947 53.683823,23.7957255 C54.581328,25.5610426 55.9458699,26.3716064 57.6406052,26.3716064 C59.7487266,26.3716064 61.5517892,25.0828638 62.652659,22.9202447 C62.8195206,24.5589638 64.1838212,26.3638202 66.3779386,26.3638202 C67.7552535,26.3638202 69.0109606,25.2996043 69.8350602,23.5466926 C69.8350602,23.5466926 70.9027565,26.4416404 73.99055,26.4416404 C75.7250015,26.4416404 77.7787481,24.8215362 78.2695098,23.6439713 L78.3235267,25.3560436 L73.7416845,29.6167383 C72.4114241,30.9190202 70.9964362,32.7904117 70.9964362,34.8618787 C70.9964362,37.4966191 73.4633235,39.0116862 75.6342263,39.0116862 C77.8907507,39.0116862 79.3880908,37.5700415 80.2083532,36.3618851 C81.2406462,34.7987734 81.6764721,31.8523926 81.6764721,28.9727681 L81.574224,24.6420255 C84.6620902,21.2190011 87.0786934,16.4876649 88.1547153,13.1400819 L90.4986893,13.0778202 C90.9526941,13.0471043 90.9302873,13.2272511 90.8671658,13.494166 C90.4551633,15.2497191 90.0954869,17.2378894 90.0954869,19.2179 C90.0954869,22.4890872 90.8427677,23.9125319 91.9166489,25.0758798 C92.8502182,26.0505755 93.7790316,26.3793787 94.7564271,26.3793787 C96.6678308,26.3793787 97.8676834,24.787584 98.2482746,23.7840532 C99.1457782,25.5493702 100.467883,26.3716064 102.162616,26.3716064 C104.270736,26.3716064 106.073798,25.0828638 107.174669,22.9202447 C107.34153,24.5589638 108.705829,26.3638202 110.899949,26.3638202 C112.539182,26.3638202 113.489752,25.4097723 114.23746,23.6128404 C114.252765,24.1909532 114.274798,24.8071532 114.291477,25.3852245 C114.311099,25.6842245 114.548177,25.8733745 114.760272,25.9513745 C115.457076,26.2171968 116.068696,26.3501979 116.618089,26.3501979 C118.050988,26.3501979 118.362083,26.0533968 118.362083,25.1089606 C118.362083,23.5510766 118.407305,21.0893606 118.846311,19.1128489 C119.312417,17.1454372 120.015561,14.917666 120.98579,13.3677064 C121.073068,13.2075574 121.287342,13.2495309 121.296391,13.4435904 C121.435692,16.7599734 121.655801,22.3737883 122.519502,23.8268564 C122.945884,24.51995 123.605027,25.0253043 124.59146,25.0253043 C125.054212,25.0253043 125.620997,24.8263074 125.766341,24.7023372 C125.913374,24.5867479 125.987515,24.4584489 125.978553,24.2198436 C125.978553,19.9804606 127.289332,15.8762777 128.602261,13.1167372 C128.638186,13.0349617 128.740496,13.0285032 128.737304,13.1361957 L128.663994,16.1906702 C128.663994,21.2076606 129.022642,24.3772404 131.507632,25.9007851 C131.888024,26.1137085 132.422674,26.3190809 133.106936,26.3190809 C134.378329,26.3190809 135.531268,25.6029191 136.10105,24.4513681 C136.565305,23.5564564 137.000055,21.8339426 137.000055,20.8579745 C137.000055,20.4801862 137.004457,19.8657564 136.39043,19.8657564 C136.053741,19.8657564 135.851557,20.1158404 135.771157,20.4941681 C135.575463,21.3134723 135.414813,22.0163989 135.111372,22.8268521 C134.821046,23.6003521 134.387876,24.0505947 133.874756,24.0505947 C133.27147,24.0505947 132.965591,23.5719043 132.790547,23.2762787 C132.020641,22.0925596 131.959064,19.3730426 131.959064,17.1031181 L132.144266,11.2607106 C132.144266,10.7773872 131.944208,10.1989287 131.204748,9.7723766 C130.708274,9.48419149 129.452531,8.94163511 128.683287,8.94163511 C127.969927,8.94163511 127.624687,9.34930957 127.367574,9.94747553 C126.884728,11.0217181 125.271153,15.2356543 124.838398,18.6614862 C124.822905,18.7518223 124.711488,18.7708521 124.703353,18.6556777 C124.478515,16.2329894 124.363053,13.3139362 124.365743,11.3443947 C124.365743,10.749133 124.221323,9.89788191 122.969006,9.34633617 C122.360571,9.09174362 121.856907,8.9358266 121.242374,8.9358266 C120.479424,8.9358266 120.315575,9.31231489 120.042413,9.81132128 C119.178275,11.4212606 118.580731,13.5210372 117.684935,16.1692894 L117.698443,10.1089798 C117.698443,9.82559362 117.526232,9.45400106 117.03287,9.35412234 C115.809565,9.07073617 115.242654,8.94166277 114.760276,8.94166277 C114.409255,8.94166277 114.216242,9.22402553 114.216242,9.52922128 L114.150649,19.8618979 C113.914077,21.1270745 112.955041,24.1459511 111.594464,24.1459511 C110.477846,24.1459511 109.956576,23.0049936 109.956576,18.2354457 L110.159141,10.4844723 C110.159141,9.99482872 109.840331,9.78898617 109.375886,9.58174681 C108.711807,9.31568936 108.18335,9.21015426 107.508424,9.21015426 C106.661246,9.21015426 106.370404,9.61911489 106.541897,10.6011957 C105.610512,9.33066702 104.679551,8.62843191 103.034616,8.62843191 C99.7324193,8.62843191 97.2431664,12.6343128 97.2431664,18.455284 C97.2106457,20.0876415 97.601998,21.7101521 97.601998,21.7101521 C97.3031844,23.0648904 96.6007337,24.1692957 95.6303582,24.1692957 C94.4061254,24.1692957 93.6259221,22.4238245 93.6259221,19.3988628 C93.6259221,16.3649532 94.7718647,12.9430766 94.7718647,12.0155957 C94.7718647,10.9372457 94.0712667,10.2548979 92.831093,10.2548979 C92.2096342,10.2548979 89.9052832,10.7821032 88.723833,10.9552798 C88.723833,10.9552798 88.8569109,10.3879404 88.8473017,9.94166702 C88.8473017,8.87815638 88.352467,8.21208617 87.1245288,8.21208617 C85.6235697,8.21208617 84.5220417,9.29278723 84.5220417,11.1362149 C84.5220417,11.9636372 84.9944489,12.7286596 85.6197545,13.1401096 C84.8080028,16.5543245 83.4881593,19.0933351 81.5433613,21.9300043 L81.7073431,10.4436191 C81.7073431,10.0701596 81.6088251,9.83830319 80.8835754,9.55450213 C80.5000686,9.3874383 79.8752211,9.19458191 79.087493,9.19458191 C77.945884,9.19458191 78.021153,10.0168319 78.082382,10.6323266 C77.5600349,9.69826277 76.4163043,8.58952872 74.6522696,8.58952872 C69.8445995,8.58952872 68.3684334,15.9828223 69.0923227,21.2334947 C69.0923227,21.8736617 68.4726562,24.1459511 67.0724545,24.1459511 C65.9558414,24.1459511 65.4345653,23.0049936 65.4345653,18.2354457 L65.6390601,10.4844723 C65.6390601,9.99482872 65.3183238,9.78898617 64.8538773,9.58174681 C64.1897949,9.31568936 63.6632664,9.21015426 62.9883433,9.21015426 C62.1411635,9.21015426 61.8503244,9.61911489 62.0218158,10.6011957 C61.0904311,9.33066702 60.157542,8.62843191 58.5126067,8.62843191 C55.2104076,8.62843191 52.688361,12.2919011 52.688361,18.1128723 C52.688361,20.3349872 50.7911674,23.7257191 49.4608138,23.7257191 C48.721753,23.7257191 47.9348189,22.3575936 47.9348189,18.8619074 C47.9386039,16.4791734 48.2608542,8.36774043 48.2608542,8.36774043 L52.9044315,8.29187021 C53.1261411,8.28979574 53.2543959,8.04543723 53.3365712,7.89498298 C53.5498606,7.45872234 53.6529589,7.16814468 53.6529589,6.64595957 C53.6529589,6.17477872 53.5594863,6.00277766 52.960378,5.96892234 L48.3322341,5.68875851 L48.5290122,1.34050745 C48.5426985,1.06582021 48.3786495,0.886973404 48.0814377,0.752962766 C47.1847377,0.400012766 46.0861006,0.0584031915 45.3902078,0.0584031915 L45.3901475,0.0583617021 Z M59.444348,11.4513681 C60.6824481,11.4513681 61.9387998,12.5902511 61.9387998,16.6303606 C61.9387998,21.717233 60.1010991,24.0836617 58.6881039,24.0836617 C57.3633166,24.0836617 56.3576338,22.198067 56.3576338,18.4941734 C56.3576338,14.7502149 57.3396687,11.4513681 59.444348,11.4513681 L59.444348,11.4513681 Z M104.031951,11.4513681 C105.270051,11.4513681 106.526403,12.5902511 106.526403,16.6303606 C106.526403,21.717233 104.688701,24.0836617 103.275706,24.0836617 C101.950918,24.0836617 100.945236,22.198067 100.945236,18.4941734 C100.945236,14.7502149 101.927272,11.4513681 104.031951,11.4513681 L104.031951,11.4513681 Z M75.7518516,11.4747128 C77.3676617,11.4747128 78.0823217,13.15405 78.0823217,16.4105085 C78.0823217,21.3196266 76.6354056,24.1147926 74.8779246,24.1147926 C73.7559796,24.1147926 72.4659937,22.2570787 72.5339506,18.6031245 C72.5339506,16.2666096 73.2893719,11.4747128 75.7518516,11.4747128 L75.7518516,11.4747128 Z M78.4874522,27.8968936 L78.4874522,29.8307404 C78.4874522,36.2472223 76.7919778,37.3424309 75.4296753,37.3424309 C74.9136831,37.3424309 73.6490264,36.9494574 73.6490264,35.3618809 C73.6490264,33.1428915 75.9495361,30.6184989 76.6643621,29.8385266 L78.4874522,27.8968936 L78.4874522,27.8968936 Z" id="Insta-LogoType" fill="#FFFFFF" sketch:type="MSShapeGroup"></path>
    </g>
</svg>