<?xml version="1.0" encoding="UTF-8" standalone="no"?>
<svg width="42px" height="42px" viewBox="0 0 42 42" version="1.1" xmlns="http://www.w3.org/2000/svg" xmlns:xlink="http://www.w3.org/1999/xlink" xmlns:sketch="http://www.bohemiancoding.com/sketch/ns">
    <!-- Generator: Sketch 3.0.2 (7799) - http://www.bohemiancoding.com/sketch -->
    <title>instagram-icon</title>
    <description>Created with Sketch.</description>
    <defs></defs>
    <g id="Page-1" stroke="none" stroke-width="1" fill="none" fill-rule="evenodd" sketch:type="MSPage">
        <path d="M29.1127328,14.9928095 L41.1261815,14.9928095 L41.1261815,33.7201933 C41.1261815,38.2819331 37.4845688,41.9798259 32.9922565,41.9798259 L8.13402541,41.9798259 C3.64181338,41.9798259 0.000100342023,38.2818312 0.000100342023,33.7201933 L0.000100342023,14.9928095 L11.9597657,14.9928095 C10.735593,16.7393537 10.0132308,18.8735999 10.0132308,21.1806563 C10.0132308,27.0821843 14.7245898,31.866356 20.5363998,31.866356 C26.3481094,31.866356 31.0594684,27.0821843 31.0594684,21.1806563 C31.0593681,18.873498 30.3369055,16.7392518 29.1127328,14.9928095 L29.1127328,14.9928095 Z M41.1261815,8.25963265 L41.1261815,13.6843024 L28.0332534,13.6843024 C26.1245474,11.7162434 23.4712033,10.4948546 20.5362995,10.4948546 C17.6011949,10.4948546 14.9479512,11.7161415 13.0393455,13.6843024 L0,13.6843024 L0,8.25963265 C0,5.47571807 1.35782826,3.01531308 3.43621258,1.51901759 L3.43621258,10.4131366 L5.103897,10.4131366 L5.103897,0.594748165 C5.48218643,0.440278709 5.87442339,0.314339231 6.27830004,0.218661909 L6.27830004,10.4132385 L7.9460848,10.4132385 L7.9460848,0.00478896073 C8.00879857,0.00326056901 8.07101062,0 8.13402541,0 L9.09710815,0 L9.09710815,10.4130347 L10.7647926,10.4130347 L10.7647926,0 L32.9922565,0 C37.4845688,0 41.1261815,3.69789282 41.1261815,8.25963265 L41.1261815,8.25963265 Z M37.4084093,4.77846577 C37.4084093,4.04677371 36.824218,3.45365583 36.1036619,3.45365583 L31.7065741,3.45365583 C30.9858174,3.45365583 30.4018268,4.04677371 30.4018268,4.77846577 L30.4018268,9.34173399 C30.4018268,10.0734261 30.9858174,10.6665439 31.7065741,10.6665439 L36.1036619,10.6665439 C36.824218,10.6665439 37.4084093,10.0734261 37.4084093,9.34173399 L37.4084093,4.77846577 L37.4084093,4.77846577 Z M12.4291657,21.1806563 C12.4291657,18.7160737 13.5026247,16.5028606 15.1979031,14.9928095 C15.79253,14.4632728 16.4635171,14.0208543 17.1922009,13.6843024 C18.2125789,13.2130483 19.3442362,12.948229 20.5362995,12.948229 C21.728463,12.948229 22.8599197,13.2130483 23.8802977,13.6843024 C24.6090818,14.0208543 25.2800689,14.4632728 25.8746958,14.9928095 C27.5699742,16.5028606 28.6433329,18.7161756 28.6433329,21.1806563 C28.6433329,25.7199797 25.0066369,29.4129816 20.5362995,29.4129816 C16.0660623,29.4129816 12.4291657,25.7199797 12.4291657,21.1806563 L12.4291657,21.1806563 Z M14.5712672,21.1806563 C14.5712672,24.5409783 17.2539112,27.264878 20.5630908,27.264878 C23.8722704,27.264878 26.554814,24.5409783 26.554814,21.1806563 C26.554814,17.8202323 23.8723707,15.0963326 20.5630908,15.0963326 C17.2539112,15.0963326 14.5712672,17.8202323 14.5712672,21.1806563 L14.5712672,21.1806563 Z" id="instagram-icon" fill="#FFFFFF" sketch:type="MSShapeGroup"></path>
    </g>
</svg>