<?xml version="1.0" encoding="UTF-8" standalone="no"?>
<svg width="182px" height="104px" viewBox="0 0 182 104" version="1.1" xmlns="http://www.w3.org/2000/svg" xmlns:xlink="http://www.w3.org/1999/xlink" xmlns:sketch="http://www.bohemiancoding.com/sketch/ns">
    <!-- Generator: Sketch 3.0.2 (7799) - http://www.bohemiancoding.com/sketch -->
    <title>vamlogo</title>
    <description>Created with Sketch.</description>
    <defs></defs>
    <g id="Page-1" stroke="none" stroke-width="1" fill="none" fill-rule="evenodd" sketch:type="MSPage">
        <g id="vamlogo" sketch:type="MSLayerGroup" fill="#FFFFFF">
            <path d="M84.1704367,3.77537564 C85.4241303,3.03778653 87.066445,2.68472567 90.3885933,2.50594761 C90.8583709,2.47136623 91.2247243,2.2223926 91.2247243,1.74691898 C91.2247243,1.24654775 90.8385576,0.970945926 90.4762856,0.970945926 L70.3242399,0.970945926 C69.8531495,0.970945926 69.3085447,1.11272396 69.3085447,1.74415264 C69.3085447,2.06574559 69.441274,2.42503079 70.0604083,2.50698498 C70.528559,2.56922959 71.5998894,2.63492975 72.7948699,2.71792178 C75.6770473,2.91848488 76.7844785,3.22002203 77.6119265,4.41129957 C78.3893092,5.53065061 77.9719176,7.51934062 77.0960922,9.88460548 C76.2232063,12.2415716 53.0277461,71.7100033 53.0277461,71.7100033 L52.9346809,71.7100033 C52.658071,70.8420461 34.2819506,13.0659564 33.4852751,10.569288 C32.6882526,8.0743482 32.3684084,6.31768961 32.7795386,5.35360219 C33.5298808,3.59383125 35.0233028,2.97554263 38.7508098,2.71895962 C39.2627363,2.68438059 39.500219,2.66363317 39.9669163,2.62559388 C40.4571988,2.5840967 40.7355152,2.15323275 40.6302953,1.62692673 C40.520469,1.07883533 40.2014945,0.964721677 39.6005981,0.964721677 C39.3257042,0.964721677 0.96316642,0.967480966 0.79027591,0.967480966 C0.433154792,0.967480966 0.0414216284,1.20608231 0.00331560564,1.69884582 C-0.0271211656,2.08925291 0.15580585,2.30883531 0.390795644,2.41534116 C0.618729173,2.51908061 1.30040584,2.60898844 2.57920095,2.69889628 C5.41954095,2.89945937 6.33713653,3.14117269 7.38726984,3.64327247 C9.5175501,4.66199617 10.9757726,7.39242501 11.7032932,9.57095839 C12.4307447,11.7491462 42.5779693,102.393773 42.6734044,102.670412 C42.8196129,103.094361 43.4327367,103.109578 43.6157586,102.670412 C43.7990291,102.231247 81.1674411,8.42982186 81.7034028,7.12270197 C82.1632878,6.00058415 82.9032569,4.51434017 84.1688122,3.7708724" id="Shape" sketch:type="MSShapeGroup"></path>
            <path d="M130.103823,94.482429 C129.280384,94.2265395 128.767832,94.7383233 128.164171,96.1664702 C127.463379,97.8225013 125.953013,98.2713489 124.500633,98.2713489 C121.784534,98.2713489 119.050107,95.1598499 117.018996,91.9933691 C116.907411,91.8204739 115.754585,90.0112496 114.022158,87.2925778 C118.431198,81.1643288 120.945015,73.9910756 122.097845,69.2546691 C122.495423,67.6218048 123.08183,65.1534924 123.960077,64.1288886 C125.177151,62.7093828 126.50747,62.2996131 128.428936,62.1076959 C129.26261,62.0247062 129.632524,61.9832114 129.945179,61.8933059 C130.379167,61.7653517 130.504927,61.3538612 130.465545,61.0537058 C130.405814,60.6020919 130.08522,60.4032566 129.74428,60.4032566 C129.403654,60.4032566 113.420709,60.4004434 112.95114,60.4004434 C112.392533,60.4004434 112.13911,60.7600747 112.13911,61.1916328 C112.13911,61.5965639 112.404428,61.8244456 112.787516,61.9171197 C113.052834,61.979362 113.527176,62.0277726 113.848924,62.0450739 C115.953547,62.1557268 117.491366,62.3926014 118.450906,63.0312914 C119.998547,64.0607362 119.847927,65.667665 119.554462,67.857955 C118.898587,72.7492803 116.414782,79.9609175 112.802421,85.3802798 C106.23053,75.0664789 94.3056204,56.3476914 94.3056204,56.3476914 C94.3056204,56.3476914 99.2423185,53.7832468 102.594311,51.8561068 C105.864765,49.975305 110.868819,46.1950311 110.868819,40.0131857 C110.868819,36.3473696 108.770387,33.4997169 105.898582,31.600934 C102.94583,29.6485524 98.523445,28.0869234 93.5034149,28.0869234 C87.2451442,28.0869234 80.5543055,30.3851047 76.9291491,36.1364328 C73.428475,41.6899642 74.3324826,49.8003327 78.4517214,56.5824889 C79.5647178,58.4148777 80.7858738,60.2666307 80.7858738,60.2666307 C79.3218411,60.7912076 77.5050117,61.5789367 75.9722749,62.2757219 C67.6458964,66.1417541 60.5795432,73.3606517 60.5795432,83.2681384 C60.5795432,94.2887536 68.7752155,103.151581 83.8826778,103.151581 C92.1205341,103.151581 98.9088849,100.537687 104.319993,96.6716547 C106.814517,100.054952 111.430609,102.593806 118.065431,102.593806 C124.360351,102.593806 129.344768,98.9290304 130.634872,95.9281867 C130.854946,95.4160559 130.721584,94.6750096 130.103927,94.4823985 L130.103823,94.482429 Z M86.4491274,32.622455 C87.7504671,30.7516823 89.6968259,29.9788209 92.305251,29.9788209 C95.84915,29.9788209 100.183154,33.2874251 100.183154,41.6381261 C100.183154,46.8876972 97.5303293,51.9311749 93.2647906,54.7387183 C93.2647906,54.7387183 89.5860408,49.055512 87.4774743,45.0878174 C85.6344694,41.6125353 83.9366884,36.2388196 86.4505081,32.622108 L86.4491274,32.622455 Z M73.56537,77.3619243 C73.56537,72.3841468 75.3107971,65.8969604 81.6797849,61.8096153 L81.6872863,61.8096153 L81.6797849,61.8096153 C81.6863486,61.8096153 81.6924436,61.8441943 81.6990074,61.8441943 C81.7093219,61.8441943 81.7235513,61.8822195 81.7424222,61.9099062 C95.6327441,83.3373387 96.4062541,84.570113 103.158987,94.9337077 C100.190604,96.9057981 96.8989886,98.0898148 93.6082035,98.0898148 C82.3579113,98.0898148 73.5650769,87.6501438 73.5650769,77.365047 L73.56537,77.3619243 Z" id="Shape" sketch:type="MSShapeGroup"></path>
            <path d="M180.307589,101.500269 C180.141643,101.46569 179.59186,101.41381 178.731318,101.344651 C174.518337,101.005775 169.914625,100.146466 167.177085,93.0489416 C166.302263,90.7735849 131.706997,1.09753886 131.482238,0.502764685 C131.222905,-0.182263047 130.572839,-0.163935643 130.344625,0.537345642 C130.150994,1.11413827 120.980908,28.2960128 120.980908,28.2960128 L144.843516,93.9666927 C145.26205,95.1859799 145.669548,96.3928187 145.669548,97.3202496 C145.669548,98.4942395 144.877852,99.8393944 143.542174,100.470479 C142.488409,100.968082 140.482057,101.232618 138.938115,101.361256 C138.451879,101.402751 138.036426,101.444246 137.597079,101.506488 C137.113782,101.575646 136.919419,101.991643 136.919419,102.357845 C136.919419,102.804618 137.254861,103.12794 137.745453,103.12794 L180.362812,103.12794 C180.720691,103.12794 181.099703,102.795972 181.099703,102.409022 C181.099703,101.749929 180.702781,101.564581 180.309111,101.499917" id="Shape" sketch:type="MSShapeGroup"></path>
        </g>
    </g>
</svg>